PathFileType	4	(X/Y/Z)	D:\Share\Shared_Data\Ergonomics\Sit To Stand Pertubation\S0\Free STS.trc
DataRate	CameraRate	NumFrames	NumMarkers	Units	OrigDataRate	OrigDataStartFrame	OrigNumFrames	
100	100	13	18	m	100	1743	191
Frame#	Time	R_Toe			R_ASIS			R_Pelvis			V_Sacral			L_Pelvis			L_ASIS			Clavical			R_Acromium			L_Acromium			Sternum			Torso			R_Thigh_Med			R_Thigh_Lat			R_Thigh			R_Shank_Med			R_Shank_Lat			R_Shank			R_Heel			
		X1	Y1	Z1	X2	Y2	Z2	X3	Y3	Z3	X4	Y4	Z4	X5	Y5	Z5	X6	Y6	Z6	X7	Y7	Z7	X8	Y8	Z8	X9	Y9	Z9	X10	Y10	Z10	X11	Y11	Z11	X12	Y12	Z12	X13	Y13	Z13	X14	Y14	Z14	X15	Y15	Z15	X16	Y16	Z16	X17	Y17	Z17	X18	Y18	Z18	

1743	3.85	0.38241705	0.044544682	0.14191481	0.12714015	0.779	0.15496794	0.013149794	0.83143964	0.20066306	-0.10727711	0.85447339	-0.032054287	0.038322178	0.81392957	-0.21048581	0.15095087	0.76739752	-0.15655496	0.39466608	1.0556776	0.00089995861	0.35361115	1.1499965	0.13667485	0.35382852	1.1583429	-0.14200705	0.37031516	0.96194519	-0.019194225	0.37838379	1.0172457	-0.11820406	0.36065915	0.47416904	0.072783173	0.34884192	0.49434506	0.20704834	0.3141814	0.64223816	0.12753409	0.26026022	0.096743797	0.10054185	0.20114638	0.089840691	0.18959579	0.28346631	0.30240665	0.21423056	0.15657246	0.046314983	0.14395721
1744	3.86	0.38252335	0.044351578	0.14178622	0.13077856	0.7819964	0.1552991	0.016986097	0.83523059	0.20090141	-0.1030627	0.8589519	-0.031966772	0.042529964	0.81770959	-0.21021661	0.15467148	0.77031726	-0.15616972	0.39849567	1.0596545	0.00097028911	0.35743192	1.1538578	0.13679982	0.35778067	1.1621796	-0.14191818	0.37415756	0.96589301	-0.018901508	0.38229953	1.0211189	-0.11810313	0.36156775	0.47395712	0.072599548	0.34989828	0.49422925	0.20683829	0.31682751	0.64243604	0.12779863	0.26032977	0.096716812	0.10051578	0.20124741	0.089888878	0.18964665	0.28401938	0.3024151	0.2141676	0.15660341	0.046420692	0.14405321
1745	3.87	0.38263376	0.044163425	0.14164009	0.13439735	0.78508466	0.15559071	0.020848015	0.83912952	0.20113902	-0.098925087	0.86348102	-0.031812199	0.046607563	0.82155621	-0.20992238	0.15826129	0.77331433	-0.15579419	0.40218658	1.0638431	0.0010734521	0.36109744	1.1579255	0.1369577	0.36154016	1.166201	-0.14181114	0.37789365	0.97004498	-0.018597349	0.38608392	1.0251912	-0.11795342	0.36231042	0.47380383	0.072339699	0.3508887	0.49419104	0.20655037	0.31939941	0.6426839	0.12786723	0.2603938	0.096698471	0.10048718	0.20135355	0.089952621	0.18969839	0.28451083	0.30246957	0.21406117	0.15664116	0.046541718	0.14416226
1746	3.88	0.3827413	0.043990108	0.14148476	0.13799435	0.78825903	0.15584645	0.024729342	0.84312268	0.20137431	-0.094869484	0.86804114	-0.031594675	0.05054916	0.82545337	-0.20961093	0.16172404	0.77639093	-0.15543539	0.40574155	1.0682329	0.0012101785	0.3646109	1.1621931	0.13714766	0.36510858	1.1703998	-0.14168872	0.38151703	0.97439075	-0.018284126	0.38973355	1.029452	-0.11775506	0.36290976	0.47370154	0.07200071	0.35184686	0.49421515	0.20618129	0.32191724	0.64297443	0.12773068	0.26045209	0.096687477	0.10045438	0.2014626	0.090030792	0.18974808	0.28495309	0.30256094	0.21391208	0.15668254	0.046674488	0.14428046
1747	3.89	0.38283774	0.043839809	0.14133029	0.14156421	0.7915072	0.15607439	0.028618761	0.84719128	0.20160971	-0.090899155	0.87261359	-0.031318567	0.054352074	0.82938867	-0.20928978	0.16506769	0.77955164	-0.15510002	0.40916498	1.0728121	0.001378932	0.36797501	1.1666525	0.13736664	0.36848874	1.1747703	-0.1415542	0.38502148	0.97892029	-0.017965033	0.39324368	1.0338922	-0.11751343	0.36339191	0.47363431	0.071587845	0.35279596	0.49428201	0.20573531	0.32439703	0.64329712	0.12739907	0.26050208	0.096681839	0.10041715	0.2015701	0.090119461	0.18979408	0.28535699	0.30267685	0.21372495	0.1567222	0.046812031	0.14440381
1748	3.9	0.38291599	0.043717304	0.14118585	0.14509932	0.79481158	0.15628571	0.03250148	0.8513125	0.20185153	-0.087015274	0.8771806	-0.030987825	0.058016373	0.83335248	-0.20896506	0.16830322	0.78280054	-0.15479301	0.41245856	1.0775676	0.001576198	0.37119186	1.1712924	0.13760962	0.37168332	1.1793058	-0.1414109	0.38840399	0.9836228	-0.017644283	0.39660962	1.0385029	-0.1172383	0.36378183	0.4735806	0.071112564	0.35374557	0.49436987	0.20522322	0.32684549	0.64363776	0.12690208	0.26053955	0.096678116	0.10037607	0.20167068	0.090212692	0.18983588	0.28572995	0.30280356	0.21350641	0.15675401	0.046945057	0.14452858
1749	3.91	0.3829718	0.043623524	0.14105708	0.14859157	0.79815216	0.15649326	0.036361362	0.85546173	0.20210909	-0.083217293	0.88172589	-0.030605297	0.0615448	0.83733807	-0.2086409	0.17144269	0.78613916	-0.15451707	0.41561969	1.082485	0.0017962759	0.37426254	1.1760991	0.13787006	0.3746937	1.1840016	-0.14126149	0.39166513	0.98848706	-0.017327003	0.39982773	1.0432764	-0.11694235	0.36410312	0.47351947	0.070590523	0.35469235	0.49445761	0.20466092	0.32926144	0.64398053	0.12628616	0.26056027	0.096671921	0.10033208	0.20175954	0.090303925	0.18987358	0.28607602	0.30292795	0.21326431	0.15677257	0.047064381	0.14465163
1750	3.92	0.38300467	0.04355582	0.14094569	0.15203365	0.80150879	0.15671082	0.040183136	0.85961371	0.20239354	-0.07950325	0.88623633	-0.030172571	0.06494265	0.84134076	-0.20831908	0.17449678	0.78956384	-0.15427234	0.41864331	1.0875515	0.0020313582	0.3771861	1.1810587	0.13814091	0.37751898	1.1888522	-0.14110799	0.39480801	0.99350171	-0.017018627	0.40289584	1.0482046	-0.11663949	0.36437933	0.47343781	0.07003981	0.35562372	0.49452805	0.20406781	0.3316409	0.64431158	0.12560874	0.26056107	0.096659531	0.10028635	0.2018336	0.090387451	0.189908	0.28639792	0.3030394	0.21300713	0.15677451	0.047163345	0.14477122
1751	3.93	0.3830173	0.043508793	0.14085048	0.15542012	0.80486499	0.15695103	0.043954239	0.86374628	0.20271645	-0.075870125	0.89070154	-0.029690456	0.068217293	0.84535797	-0.20799873	0.17747356	0.79306519	-0.15405641	0.42152414	1.0927576	0.0022722547	0.37995975	1.1861577	0.13841574	0.3801571	1.1938535	-0.14095213	0.39783725	0.99865613	-0.016723963	0.40581354	1.0532808	-0.11634355	0.36463339	0.47333304	0.069478836	0.35652356	0.49457053	0.20346419	0.33398062	0.64462103	0.12493058	0.2605408	0.096638802	0.10024047	0.20189221	0.090459419	0.18994069	0.28669849	0.30313187	0.21274367	0.15675914	0.047238747	0.14488739
1752	3.94	0.38301459	0.043475754	0.1407691	0.15874915	0.80821094	0.15722307	0.047666203	0.86784143	0.20308759	-0.072314209	0.89511462	-0.029159769	0.071377579	0.84938873	-0.20767693	0.18037857	0.79663	-0.15386447	0.42425851	1.0980983	0.0025095625	0.38257962	1.1913843	0.13868982	0.38260602	1.1990012	-0.14079562	0.40075699	1.0039415	-0.01644626	0.40858209	1.0584993	-0.11606713	0.36488263	0.47321039	0.068924072	0.35737689	0.49458157	0.20286888	0.33627884	0.64490308	0.12430775	0.26050031	0.096609505	0.1001966	0.20193645	0.090518082	0.18997391	0.28698068	0.30320425	0.21248276	0.15672833	0.047290749	0.14500171
1753	3.95	0.38300198	0.043450325	0.14069926	0.16202295	0.81154321	0.15753142	0.051315308	0.87188678	0.20351321	-0.068831276	0.89947192	-0.028582071	0.074433319	0.8534339	-0.20734961	0.18321599	0.80024493	-0.15368919	0.42684418	1.1035713	0.0027348113	0.38504169	1.1967303	0.1389608	0.38486523	1.2042911	-0.14064006	0.40356985	1.009351	-0.016186684	0.41120367	1.0638557	-0.11582079	0.36513635	0.47307928	0.068388397	0.35817288	0.4945643	0.20229666	0.3385351	0.64515607	0.12378458	0.26044211	0.096573143	0.10015719	0.20196846	0.090563278	0.19000984	0.28724576	0.30325986	0.21223244	0.15668541	0.047322376	0.14511662
1754	3.96	0.38298471	0.043427189	0.14063922	0.16524657	0.81486377	0.15787616	0.054902592	0.87587524	0.20399501	-0.065416306	0.90377222	-0.027960012	0.077395195	0.85749438	-0.20701341	0.1859897	0.80389709	-0.15352113	0.42927792	1.1091765	0.0029410472	0.38734201	1.2021909	0.13922865	0.38693661	1.209719	-0.14048712	0.40627707	1.0148803	-0.015944282	0.41368134	1.0693477	-0.11561278	0.36539752	0.47295135	0.067880989	0.35890591	0.49452646	0.20175734	0.34075052	0.64538159	0.12338926	0.26036981	0.096532188	0.10012406	0.20199051	0.090595932	0.19004996	0.28749249	0.30330392	0.2119991	0.1566344	0.0473381	0.14523407
1755	3.97	0.38296722	0.043402309	0.1405878	0.16842557	0.81817725	0.1582536	0.058433216	0.87980432	0.20452985	-0.062063587	0.9080155	-0.027297241	0.080274353	0.86157013	-0.20666713	0.18870381	0.8075752	-0.15334978	0.4315549	1.1149146	0.0031228642	0.38947769	1.207764	0.13949506	0.38882382	1.2152803	-0.14033835	0.40887936	1.0205273	-0.015716619	0.41601788	1.0749733	-0.11544899	0.36566489	0.47283817	0.067407921	0.35957486	0.49447818	0.20125607	0.34292734	0.64558307	0.12313288	0.26028741	0.09648896	0.10009772	0.20200468	0.090617516	0.19009424	0.28771796	0.3033418	0.2117865	0.15657919	0.047342392	0.14535435
